<mxfile host="app.diagrams.net" modified="2020-08-19T05:46:25.185Z" agent="5.0 (Macintosh; Intel Mac OS X 10_15_5) AppleWebKit/537.36 (KHTML, like Gecko) Chrome/84.0.4147.125 Safari/537.36" etag="QwzVst7BaNVJggLVGYYh" version="13.6.2" type="github">
  <diagram id="ln1mrVX1mrhun-X9sC05" name="Page-1">
    <mxGraphModel dx="2066" dy="1154" grid="1" gridSize="10" guides="1" tooltips="1" connect="1" arrows="1" fold="1" page="1" pageScale="1" pageWidth="827" pageHeight="1169" math="0" shadow="0">
      <root>
        <mxCell id="0" />
        <mxCell id="1" parent="0" />
        <mxCell id="Rt-vH4xQGZKmyeNd1HRq-5" style="edgeStyle=orthogonalEdgeStyle;rounded=0;orthogonalLoop=1;jettySize=auto;html=1;curved=1;entryX=0;entryY=0.25;entryDx=0;entryDy=0;strokeWidth=2;fillColor=#f8cecc;strokeColor=#b85450;" edge="1" parent="1" source="Rt-vH4xQGZKmyeNd1HRq-1" target="Rt-vH4xQGZKmyeNd1HRq-2">
          <mxGeometry relative="1" as="geometry" />
        </mxCell>
        <mxCell id="Rt-vH4xQGZKmyeNd1HRq-1" value="&lt;font style=&quot;font-size: 16px&quot;&gt;Processor&lt;/font&gt;" style="rounded=0;whiteSpace=wrap;html=1;fillColor=#dae8fc;strokeColor=#6c8ebf;" vertex="1" parent="1">
          <mxGeometry x="160" y="290" width="120" height="140" as="geometry" />
        </mxCell>
        <mxCell id="Rt-vH4xQGZKmyeNd1HRq-7" style="edgeStyle=orthogonalEdgeStyle;curved=1;rounded=0;orthogonalLoop=1;jettySize=auto;html=1;entryX=1;entryY=0.75;entryDx=0;entryDy=0;strokeWidth=2;fillColor=#f8cecc;strokeColor=#b85450;" edge="1" parent="1" source="Rt-vH4xQGZKmyeNd1HRq-2" target="Rt-vH4xQGZKmyeNd1HRq-1">
          <mxGeometry relative="1" as="geometry" />
        </mxCell>
        <mxCell id="Rt-vH4xQGZKmyeNd1HRq-2" value="1" style="rounded=0;whiteSpace=wrap;html=1;fillColor=#dae8fc;strokeColor=#6c8ebf;" vertex="1" parent="1">
          <mxGeometry x="440" y="330" width="120" height="60" as="geometry" />
        </mxCell>
        <mxCell id="Rt-vH4xQGZKmyeNd1HRq-3" value="&lt;font style=&quot;font-size: 16px&quot;&gt;Memory&lt;/font&gt;" style="text;html=1;align=center;verticalAlign=middle;resizable=0;points=[];autosize=1;" vertex="1" parent="1">
          <mxGeometry x="465" y="300" width="70" height="20" as="geometry" />
        </mxCell>
        <mxCell id="Rt-vH4xQGZKmyeNd1HRq-4" value="0" style="text;html=1;strokeColor=none;fillColor=none;align=center;verticalAlign=middle;whiteSpace=wrap;rounded=0;" vertex="1" parent="1">
          <mxGeometry x="240" y="410" width="40" height="20" as="geometry" />
        </mxCell>
      </root>
    </mxGraphModel>
  </diagram>
</mxfile>
